<svg height="512" viewBox="0 0 64 64" width="512" xmlns="http://www.w3.org/2000/svg"><g id="Cough"><path d="m56 39a5 5 0 0 1 0 10 3.593 3.593 0 0 1 -1-.18 11.122 11.122 0 0 1 -2-.82c-.5.96-.85 2-2 2a3 3 0 0 1 -3-3l-1.01-3.72-1.99-7.28 5 3a3 3 0 0 1 6 0z" fill="#ffde55"/><path d="m55 53v2a6 6 0 0 1 -6 6h-5.08l-1.29-1.85-7.72-11.02-3.89-5.56a4 4 0 1 1 6.55-4.59l5.59 7.99 4.92 7.03z" fill="#ffdaaa"/><path d="m55 48.82v4.18h-6.92l-4.92-7.03-.76-3.67 4.59.98 1.01 3.72a3 3 0 0 0 3 3c1.15 0 1.5-1.04 2-2a11.122 11.122 0 0 0 2 .82z" fill="#00d7df"/><path d="m47 22v2a2.006 2.006 0 0 1 -2 2h-2v-6h2a2.006 2.006 0 0 1 2 2z" fill="#ffdaaa"/><path d="m47 3v6a7.969 7.969 0 0 1 -4 6.92v-.92l-7-4-15 4v2a4 4 0 0 1 -4-4v-2a8 8 0 0 1 8-8z" fill="#57565c"/><path d="m47 3v6a7.969 7.969 0 0 1 -4 6.92v-.92l-1.75-1a8.014 8.014 0 0 0 1.75-5v-6z" fill="#3e3d42"/><path d="m43.16 45.97-5.59-7.99a4 4 0 0 0 -6.55 4.59l3.89 5.56c-.72.95-1.46 1.87-2.9 1.87-3 0-3-4-6.01-4s-3 4-6 4l1.6-7.7 1.93-9.27.04-.18a8.613 8.613 0 0 1 16.86 0l.04.18 1.93 9.27z" fill="#c0ab91"/><path d="m43.16 45.97-5.59-7.99-.09-.12-1.01-4.83-.04-.18a8.53 8.53 0 0 0 -3-4.92 8.623 8.623 0 0 0 -3.43-1.69 8.236 8.236 0 0 1 2-.24 8.619 8.619 0 0 1 8.43 6.85l.04.18 1.93 9.27z" fill="#a78966"/><path d="m43 20v6a10.993 10.993 0 0 1 -2.53 7.03l-.04-.18a8.612 8.612 0 0 0 -16.86 0l-.04.18a10.993 10.993 0 0 1 -2.53-7.03v-11l15-4 7 4z" fill="#ffdaaa"/><path d="m43 15v11a10.993 10.993 0 0 1 -2.53 7.03l-.04-.18a8.608 8.608 0 0 0 -1.17-2.88 10.9 10.9 0 0 0 .74-3.97v-11l-6.05-3.45 2.05-.55z" fill="#ffc477"/><path d="m42.63 59.15-10.63 1.85-23-4v-8.18a11.122 11.122 0 0 0 2-.82c.5.96.85 2 2 2a3 3 0 0 0 3-3l1.01-3.72 4.59-.98-1.6 7.7c3 0 3-4 6-4s3.01 4 6.01 4c1.44 0 2.18-.92 2.9-1.87z" fill="#00d7df"/><path d="m21 20v6h-2a2.006 2.006 0 0 1 -2-2v-2a2.006 2.006 0 0 1 2-2z" fill="#ffdaaa"/><path d="m19 36-1.99 7.28-1.01 3.72a3 3 0 0 1 -3 3c-1.15 0-1.5-1.04-2-2a11.122 11.122 0 0 1 -2 .82 3.593 3.593 0 0 1 -1 .18 5 5 0 0 1 0-10 3 3 0 0 1 6 0z" fill="#ffde55"/><path d="m35.445 20.832 3 2 1.11-1.664-1.755-1.168 1.752-1.168-1.11-1.664-3 2a1 1 0 0 0 0 1.664z"/><path d="m25.555 22.832 3-2a1 1 0 0 0 0-1.664l-3-2-1.11 1.664 1.755 1.168-1.752 1.168z"/><path d="m31 16h2v4h-2z"/><path d="m56.89 38.07a4 4 0 0 0 -7.57-.64l-3.81-2.29a1 1 0 0 0 -1.47 1.12l1.55 5.7-2.35-.5-1.7-8.19a12.073 12.073 0 0 0 2.42-6.27h1.04a3.009 3.009 0 0 0 3-3v-2a3.009 3.009 0 0 0 -3-3h-1v-2.55a8.982 8.982 0 0 0 4-7.45v-6a1 1 0 0 0 -1-1h-22a9.014 9.014 0 0 0 -9 9v2a5.017 5.017 0 0 0 4 4.9v1.1h-1a3.009 3.009 0 0 0 -3 3v2a3.009 3.009 0 0 0 3 3h1.04a12.073 12.073 0 0 0 2.42 6.27l-1.7 8.19-2.35.5 1.55-5.7a1 1 0 0 0 -1.47-1.12l-3.81 2.29a4 4 0 0 0 -7.57.64 6 6 0 0 0 .89 11.93v7a1.008 1.008 0 0 0 .83.99l23 4a1.45 1.45 0 0 0 .34 0l10-1.74.93 1.32a1 1 0 0 0 .82.43h5.08a7.008 7.008 0 0 0 7-7v-5a6 6 0 0 0 .89-11.93zm-36.89-13.07h-1a1 1 0 0 1 -1-1v-2a1 1 0 0 1 1-1h1zm25-4a1 1 0 0 1 1 1v2a1 1 0 0 1 -1 1h-1v-4zm-25-6v.82a3.01 3.01 0 0 1 -2-2.82v-2a7.008 7.008 0 0 1 7-7h21v5a6.978 6.978 0 0 1 -2.38 5.23c-.04-.03-.08-.07-.12-.1l-7-4a1.055 1.055 0 0 0 -.76-.1l-15 4a1 1 0 0 0 -.74.97zm2 11v-10.23l13.86-3.7 6.14 3.51v10.42a10.028 10.028 0 0 1 -1.2 4.75 9.6 9.6 0 0 0 -8.8-5.75 9.653 9.653 0 0 0 -8.79 5.75 9.922 9.922 0 0 1 -1.21-4.75zm2.55 7.05a7.606 7.606 0 0 1 12.25-4.34 7.5 7.5 0 0 1 2.65 4.34l1.74 8.36-2.8-4a5 5 0 0 0 -6.96-1.23 4.991 4.991 0 0 0 -1.23 6.96l3.46 4.95a2.017 2.017 0 0 1 -1.65.91c-.95 0-1.43-.58-2.2-1.6-.8-1.07-1.8-2.4-3.81-2.4s-3 1.33-3.8 2.4a8.152 8.152 0 0 1 -.85 1.02zm-16.55 14.95a4 4 0 0 1 0-8 1 1 0 0 0 1-1 2 2 0 0 1 4 0 1 1 0 0 0 1.51.86l2.87-1.72-2.34 8.6a.746.746 0 0 0 -.04.26 2.006 2.006 0 0 1 -2 2c-.32 0-.48-.18-.92-1.08l-.19-.38a1.025 1.025 0 0 0 -.6-.5.925.925 0 0 0 -.29-.04 1 1 0 0 0 -.48.12 7.251 7.251 0 0 1 -2.52.88zm24 11.98-22-3.82v-6.62c.19-.07.38-.14.55-.22a2.705 2.705 0 0 0 2.45 1.68 4.011 4.011 0 0 0 4-3.86l.82-3.01 2.49-.53-1.29 6.2a.993.993 0 0 0 .2.83 1.022 1.022 0 0 0 .78.37c2 0 3-1.33 3.8-2.4.77-1.02 1.25-1.6 2.2-1.6s1.44.58 2.21 1.6c.8 1.07 1.8 2.4 3.8 2.4a3.829 3.829 0 0 0 2.83-1.23l6.06 8.67zm22-4.98a5 5 0 0 1 -5 5h-4.56l-12.6-18a3 3 0 1 1 4.91-3.44l10.51 15.01a1.01 1.01 0 0 0 .82.43h5.92zm0-3h-5.4l-4.5-6.44-.41-1.96 2.49.53.82 3.01a4.011 4.011 0 0 0 4 3.86 2.705 2.705 0 0 0 2.45-1.68c.17.08.36.15.55.22zm2-4a7.251 7.251 0 0 1 -2.52-.88 1.036 1.036 0 0 0 -.77-.08 1.025 1.025 0 0 0 -.6.5l-.19.38c-.44.9-.6 1.08-.92 1.08a2.006 2.006 0 0 1 -2-2 .746.746 0 0 0 -.04-.26l-2.34-8.6 2.87 1.72a1 1 0 0 0 1.51-.86 2 2 0 0 1 4 0 1 1 0 0 0 1 1 4 4 0 0 1 0 8z"/><path d="m47 31h8v2h-8z"/><path d="m46.646 26.5h6.708v2h-6.708z" transform="matrix(.894 -.447 .447 .894 -7.02 25.264)"/><path d="m9 31h8v2h-8z"/><path d="m13 24.146h2v6.708h-2z" transform="matrix(.447 -.894 .894 .447 -16.858 27.724)"/></g></svg>