<svg id="Capa_1" enable-background="new 0 0 512 512" height="512" viewBox="0 0 512 512" width="512" xmlns="http://www.w3.org/2000/svg"><g><g><g><g><path d="m379.137 502v-94.892c0-25.763-16.447-48.651-40.865-56.867l-86.831-29.217c-8.139-2.739-13.622-10.368-13.622-18.956v-32.568h-89v32.568c0 8.588-5.482 16.217-13.622 18.956l-86.831 29.217c-24.419 8.216-40.866 31.104-40.866 56.867v94.892c0 5.523 4.477 10 10 10h351.637c5.523 0 10-4.477 10-10z" fill="#dd636e"/><g><path d="m338.271 350.241-86.831-29.217c-8.139-2.739-13.622-10.368-13.622-18.956v-32.568h-89v15h59v32.568c0 8.587 5.482 16.217 13.622 18.956l86.831 29.217c24.418 8.216 40.865 31.104 40.865 56.867v89.892h20c5.523 0 10-4.477 10-10v-94.892c.001-25.763-16.446-48.651-40.865-56.867z" fill="#da4a54"/></g><path d="m193.318 381.5c35.853 0 66.533-22.078 79.235-53.372l-21.114-7.104c-8.139-2.739-13.622-10.368-13.622-18.956v-32.568h-89v32.568c0 8.587-5.482 16.217-13.622 18.956l-21.114 7.104c12.704 31.294 43.384 53.372 79.237 53.372z" fill="#f1ccbd"/><path d="m207.818 317.068c0 8.587 5.482 16.217 13.622 18.956l38.86 13.075c5.019-6.327 9.17-13.374 12.254-20.971l-21.113-7.104c-8.139-2.739-13.622-10.368-13.622-18.956v-32.568h-89v15h59v32.568z" fill="#eaad9c"/><g><path d="m308.422 142.5h-230.207v-85c0-27.614 22.386-50 50-50h130.207c27.614 0 50 22.386 50 50z" fill="#655e67"/><path d="m258.422 7.5h-30c27.614 0 50 22.386 50 50v85h30v-85c0-27.614-22.386-50-50-50z" fill="#544f56"/><path d="m316.307 172.034h-7.885v-44.542h7.885c12.3 0 22.271 9.971 22.271 22.271 0 12.3-9.971 22.271-22.271 22.271z" fill="#f1ccbd"/><path d="m70.329 172.034h7.885v-44.542h-7.885c-12.3 0-22.271 9.971-22.271 22.271 0 12.3 9.971 22.271 22.271 22.271z" fill="#eaad9c"/><g><path d="m192.912 303.991c-63.615-.22-114.697-52.736-114.697-116.352v-60.139c22.95.068 57.431-2.836 95.558-18.192 17.785-7.163 32.723-15.57 44.837-23.607 2.62-1.738 6.124-1.125 8.051 1.36 6.093 7.856 16.326 18.732 31.844 27.344 20.888 11.592 40.434 13.022 49.917 13.096v61.388c0 63.704-51.754 115.322-115.51 115.102z" fill="#f1ccbd"/></g><g><path d="m278.422 122.87v51.018c0 63.705-51.753 115.323-115.51 115.103-12.183-.042-23.904-2.008-34.897-5.597 18.424 12.894 40.756 20.514 64.897 20.597 63.757.221 115.51-51.397 115.51-115.103 0-20.462 0-40.925 0-61.388-6.355-.049-17.232-.713-30-4.63z" fill="#eaad9c"/></g></g></g></g><path d="m482.5 203.27v-145.27c0-15.74-12.76-28.5-28.5-28.5-15.74 0-28.5 12.76-28.5 28.5v145.269c0 1.874-.887 3.624-2.369 4.77-12.153 9.401-19.904 24.217-19.623 40.835.45 26.604 21.935 48.579 48.524 49.589 28.787 1.093 52.468-21.919 52.468-50.463 0-16.265-7.693-30.729-19.635-39.964-1.48-1.145-2.365-2.895-2.365-4.766z" fill="#f7f6f7"/><path d="m484.865 208.036c-1.48-1.145-2.365-2.895-2.365-4.766v-145.27c0-15.74-12.76-28.5-28.5-28.5-3.284 0-6.436.562-9.372 1.585 11.135 3.877 19.128 14.459 19.128 26.915v145.27c0 1.872.885 3.621 2.365 4.766 11.942 9.236 19.635 23.7 19.635 39.964 0 24.692-17.726 45.231-41.143 49.62 2.418.46 4.895.747 7.419.842 28.787 1.095 52.468-21.918 52.468-50.462 0-16.265-7.693-30.729-19.635-39.964z" fill="#e2dfe3"/><circle cx="454" cy="248" fill="#dd636e" r="20.5"/></g><path d="m376.929 87.842h18.571c4.142 0 7.5-3.358 7.5-7.5s-3.358-7.5-7.5-7.5h-18.571c-4.142 0-7.5 3.358-7.5 7.5s3.358 7.5 7.5 7.5zm0 60h18.571c4.142 0 7.5-3.358 7.5-7.5s-3.358-7.5-7.5-7.5h-18.571c-4.142 0-7.5 3.358-7.5 7.5s3.358 7.5 7.5 7.5zm0-30h18.571c4.142 0 7.5-3.358 7.5-7.5s-3.358-7.5-7.5-7.5h-18.571c-4.142 0-7.5 3.358-7.5 7.5s3.358 7.5 7.5 7.5zm-147.491 55.353c3.26 2.555 7.974 1.983 10.529-1.277l5.851-7.466 5.851 7.466c2.57 3.279 7.291 3.815 10.529 1.277 3.26-2.555 3.832-7.269 1.277-10.529l-8.606-10.982c-2.194-2.801-5.494-4.407-9.052-4.407s-6.857 1.606-9.052 4.407l-8.606 10.982c-2.553 3.26-1.981 7.975 1.279 10.529zm-35.383 75.318c5.313.19 9.266 2.464 11.149 3.802 3.377 2.399 8.06 1.607 10.458-1.771 2.399-3.377 1.606-8.059-1.771-10.458-3.971-2.821-10.543-6.25-19.299-6.563-10.446-.386-18.158 3.949-21.84 6.559-3.379 2.395-4.178 7.076-1.783 10.456 2.413 3.405 7.109 4.155 10.456 1.783 2.137-1.516 6.624-4.025 12.63-3.808zm-44.185-96.829c-2.194-2.801-5.494-4.407-9.052-4.407s-6.857 1.606-9.052 4.407l-8.606 10.982c-2.555 3.26-1.983 7.975 1.277 10.529 3.259 2.555 7.974 1.983 10.529-1.277l5.851-7.466 5.851 7.466c2.57 3.279 7.291 3.815 10.529 1.277 3.26-2.555 3.832-7.269 1.277-10.529zm304.13-78.842c-4.142 0-7.5 3.358-7.5 7.5v140.687c-11.808 3.287-20.5 14.13-20.5 26.971 0 15.439 12.561 28 28 28s28-12.561 28-28c0-12.841-8.692-23.684-20.5-26.972v-140.686c0-4.142-3.358-7.5-7.5-7.5zm13 175.158c0 7.168-5.832 13-13 13s-13-5.832-13-13 5.832-13 13-13 13 5.832 13 13zm23-45.469v-144.531c0-19.851-16.149-36-36-36s-36 16.149-36 36v52.342c0 4.142 3.358 7.5 7.5 7.5s7.5-3.358 7.5-7.5v-52.342c0-11.58 9.42-21 21-21s21 9.42 21 21v145.27c0 4.206 1.923 8.105 5.277 10.699 10.628 8.219 16.723 20.623 16.723 34.031 0 11.796-4.681 22.799-13.182 30.981-8.495 8.18-19.671 12.437-31.502 11.987-22.779-.866-40.924-19.412-41.31-42.222-.231-13.706 5.86-26.381 16.712-34.775 3.356-2.596 5.281-6.497 5.281-10.703v-57.927c0-4.142-3.358-7.5-7.5-7.5s-7.5 3.358-7.5 7.5v57.188c-14.294 11.319-22.3 28.216-21.992 46.47.52 30.77 25.003 55.789 55.738 56.957 15.814.601 31.023-5.143 42.475-16.169 11.466-11.036 17.78-25.877 17.78-41.787 0-17.856-8.008-34.388-22-45.469zm-87-32.189c0-4.142-3.358-7.5-7.5-7.5h-18.571c-4.142 0-7.5 3.358-7.5 7.5s3.358 7.5 7.5 7.5h18.571c4.142 0 7.5-3.358 7.5-7.5zm-62.338 172.79-86.838-29.224c-5.938-1.997-9.089-7.826-8.504-13.922 42.316-19.866 70.774-64.312 70.602-111.098v-9.354c16.529.161 30.156-13.176 30.156-29.771 0-16.549-13.597-29.993-30.156-29.771v-62.492c0-31.706-25.794-57.5-57.5-57.5h-130.207c-31.706 0-57.5 25.794-57.5 57.5v62.493c-16.555-.183-30.156 13.194-30.156 29.771 0 16.544 13.6 29.997 30.156 29.771v8.104c0 49.453 28.94 92.299 70.605 112.123.547 6.057-2.462 12.18-8.512 14.15l-86.831 29.221c-27.5 9.256-45.977 34.967-45.977 63.977v97.39c0 4.143 3.358 7.5 7.5 7.5s7.5-3.357 7.5-7.5v-97.39c0-22.564 14.372-42.562 35.762-49.762l59.275-19.948c15.649 31.569 47.613 51.6 83.281 51.6s67.633-20.032 83.281-51.6l59.278 19.949c21.391 7.2 35.763 27.197 35.763 49.762v97.39c0 4.143 3.358 7.5 7.5 7.5s7.5-3.357 7.5-7.5v-97.39c0-29.011-18.477-54.722-45.978-63.979zm-24.74-208.139c8.251-.277 15.156 6.533 15.156 14.771 0 8.246-6.873 15.012-15.156 14.771zm-245.207 29.541c-8.278.248-15.156-6.512-15.156-14.771 0-8.274 6.88-14.991 15.156-14.771zm15 23.104v-52.722c11.182-.282 22.352-1.265 33.304-2.934 4.095-.624 6.909-4.449 6.285-8.544-.624-4.094-4.446-6.905-8.544-6.285-10.207 1.555-20.618 2.482-31.044 2.754v-62.407c0-23.435 19.065-42.5 42.5-42.5h130.207c23.435 0 42.5 19.065 42.5 42.5v62.136c-10.751-.928-24.568-3.904-38.778-11.79-11.499-6.382-21.443-14.922-29.557-25.383-4.318-5.568-12.279-6.891-18.124-3.013-13.7 9.09-28.333 16.794-43.493 22.899-7.03 2.832-14.285 5.362-21.562 7.52-3.972 1.177-6.236 5.351-5.059 9.322s5.349 6.236 9.322 5.059c7.729-2.292 15.436-4.979 22.903-7.987 15.665-6.309 30.797-14.224 45.001-23.536 9.208 11.586 20.401 21.082 33.29 28.234 16.978 9.422 33.475 12.784 46.056 13.728v54.197c.155 58.28-49.343 107.805-107.984 107.603-59.123-.203-107.223-49.034-107.223-108.851zm107.603 186.362c-29.213 0-55.457-16.03-68.895-41.44l13.161-4.429c10.065-3.375 17.144-12.173 18.486-22.499 11.623 3.759 23.991 5.814 36.816 5.858 12.982.045 25.656-1.917 37.698-5.744 1.379 10.277 8.443 19.022 18.465 22.382l13.166 4.431c-13.439 25.41-39.683 41.441-68.897 41.441z"/></g></svg>