<svg id="Capa_1" enable-background="new 0 0 512 512" height="512" viewBox="0 0 512 512" width="512" xmlns="http://www.w3.org/2000/svg"><g><g><g><g><path d="m369.139 512h-313.167c-8.284 0-15-6.716-15-15v-388.141c0-8.284 6.716-15 15-15h313.167c8.284 0 15 6.716 15 15v388.141c0 8.284-6.716 15-15 15z" fill="#fbf4f4"/><path d="m369.139 93.859h-156.584v418.141h156.583c8.284 0 15-6.716 15-15v-388.141c.001-8.285-6.715-15-14.999-15z" fill="#e2dff4"/></g><g><path d="m151.291 234.154c0 17.974-14.57 32.544-32.544 32.544s-32.544-14.57-32.544-32.544c0-14.055 19.902-36.006 28.579-44.908 2.176-2.232 5.754-2.232 7.93 0 8.677 8.902 28.579 30.853 28.579 44.908z" fill="#ff6378"/><g fill="#d5d3ea"><path d="m336.827 240.434h-84.411c-8.284 0-15-6.716-15-15s6.716-15 15-15h84.411c8.284 0 15 6.716 15 15s-6.716 15-15 15z"/><g><path d="m161.456 461.071h-64.41c-8.284 0-15-6.716-15-15s6.716-15 15-15h64.41c8.284 0 15 6.716 15 15s-6.716 15-15 15z"/><path d="m161.456 401.071h-64.41c-8.284 0-15-6.716-15-15s6.716-15 15-15h64.41c8.284 0 15 6.716 15 15s-6.716 15-15 15z"/><path d="m161.456 341.071h-64.41c-8.284 0-15-6.716-15-15s6.716-15 15-15h64.41c8.284 0 15 6.716 15 15s-6.716 15-15 15z"/></g></g></g></g><g><path d="m255.293 58.649c1.755-5.455 2.506-11.359 2.002-17.504-1.852-22.554-20.629-40.388-43.247-41.121-25.475-.826-46.386 19.58-46.386 44.869 0 4.799.761 9.419 2.156 13.755h-55.708c-8.284 0-15 6.716-15 15v32.522c0 8.284 6.716 15 15 15h196.891c8.284 0 15-6.716 15-15v-32.521c0-8.284-6.716-15-15-15z" fill="#ffd845"/><path d="m311.001 58.649h-55.708c1.755-5.455 2.506-11.359 2.002-17.504-1.852-22.554-20.629-40.388-43.247-41.121-.5-.016-.995-.01-1.492-.01v121.156h98.445c8.284 0 15-6.716 15-15v-32.521c0-8.284-6.716-15-15-15z" fill="#ff9d21"/></g></g><g><g><circle cx="354.845" cy="395.816" fill="#00da80" r="116.184"/><path d="m354.845 279.632c-1.551 0-3.092.04-4.629.1v232.168c1.536.061 3.078.1 4.629.1 64.064 0 116.184-52.12 116.184-116.184-.001-64.064-52.12-116.184-116.184-116.184z" fill="#00a78e"/></g><g><path d="m389.471 355.258c-6.934-4.534-16.229-2.587-20.763 4.347l-25.8 39.464-11.528-16.16c-4.809-6.744-14.178-8.312-20.922-3.5-6.744 4.811-8.311 14.178-3.5 20.922l24.278 34.034c4.744 6.652 14.262 8.252 20.922 3.501 1.548-1.104 2.809-2.456 3.797-3.954.013-.018.034-.031.046-.049l37.815-57.841c4.534-6.935 2.588-16.231-4.345-20.764z" fill="#fbf4f4"/><path d="m389.471 355.258c-6.934-4.534-16.229-2.587-20.763 4.347l-18.492 28.285v51.124c.666-.334 1.32-.704 1.942-1.148 1.548-1.104 2.809-2.456 3.797-3.954.013-.018.034-.031.046-.049l37.816-57.841c4.534-6.935 2.587-16.231-4.346-20.764z" fill="#e2dff4"/></g></g></g></svg>